<?xml version="1.0" encoding="UTF-8"?>
<svg version="1.1" xmlns="http://www.w3.org/2000/svg" width="1181" height="1181">
<path d="M0 0 C1.45226819 1.40152338 2.89245399 2.81583822 4.3125 4.25 C5.17875 5.075 6.045 5.9 6.9375 6.75 C7.72125 7.575 8.505 8.4 9.3125 9.25 C10.18261719 10.11044922 10.18261719 10.11044922 11.0703125 10.98828125 C27.69196814 28.29435801 37.05909267 55.47289779 37.55078125 79.2109375 C37.37440752 85.5106089 34.96779508 90.28978214 30.9375 95.0625 C23.80171496 101.00898753 18.48744232 103.05375528 9.3125 102.25 C2.78198765 100.91449185 -2.45557821 97.35097716 -6.6875 92.25 C-10.21502428 85.94455035 -11.26726783 78.6907607 -12.6875 71.6875 C-15.90355296 55.85261838 -21.89598958 43.27712068 -35.80078125 33.9296875 C-55.92401367 22.22063481 -81.21416497 20.1925926 -103.71875 25.14453125 C-123.24449765 30.32857756 -142.48400659 38.45225184 -153.1875 56.46484375 C-159.88298208 68.89681959 -160.98991751 81.29883341 -160.9621582 95.25415039 C-160.96651805 96.61424028 -160.97170537 97.97432772 -160.97764587 99.33441162 C-160.99091659 102.99397916 -160.99162755 106.65344266 -160.98908257 110.31302953 C-160.9880038 113.38868533 -160.99291963 116.46432085 -160.997688 119.53997225 C-161.00874395 126.81108778 -161.009244 134.08215164 -161.00317383 141.35327148 C-160.9971495 148.80245806 -161.00941477 156.25145502 -161.0307439 163.70060927 C-161.04848784 170.13932354 -161.05434096 176.57797819 -161.05110615 183.01671594 C-161.04931194 186.84295881 -161.05173864 190.66906668 -161.06582069 194.49528694 C-161.16290484 223.36979156 -160.57157708 256.90724321 -139.0625 279.0703125 C-118.80450891 297.66235038 -91.55199662 298.40111699 -65.55859375 298.453125 C-64.59821764 298.45595238 -63.63784153 298.45877975 -62.64836311 298.46169281 C-57.5636684 298.47661271 -52.47900152 298.48588705 -47.39428711 298.49023438 C-42.19592909 298.49570217 -36.99783519 298.51971545 -31.79955959 298.54820633 C-27.75414836 298.56701111 -23.70879845 298.57204774 -19.66334724 298.57357025 C-17.74956891 298.57655826 -15.83579063 298.58445269 -13.9220562 298.59775543 C12.53331471 298.76850294 40.35342277 294.47967552 60.30175781 275.5222168 C72.70223613 263.05568782 77.02894825 247.29271494 78.3125 230.25 C78.3846875 229.30640625 78.456875 228.3628125 78.53125 227.390625 C79.17958551 209.56139834 73.79046255 190.74032608 61.6953125 177.4765625 C45.54415203 162.25274139 20.73799708 164.80886239 0.36914062 164.88964844 C-3.21785275 164.89824805 -6.80373007 164.87650766 -10.390625 164.8515625 C-11.47627747 164.86490631 -12.56192993 164.87825012 -13.68048096 164.89199829 C-21.56575447 164.81612967 -28.23020412 163.13222338 -34.30328369 157.84268188 C-39.58674412 151.97573517 -41.29113873 145.7262508 -41.02734375 138.0234375 C-40.08305304 130.31715701 -36.62989825 125.57531702 -30.78515625 120.66015625 C-26.52704668 117.79762821 -22.83981634 116.99717604 -17.74584961 116.95947266 C-16.56949448 116.94671295 -15.39313934 116.93395325 -14.18113708 116.92080688 C-12.91351028 116.91858124 -11.64588348 116.91635559 -10.33984375 116.9140625 C-9.00484582 116.90761984 -7.66984925 116.90089044 -6.33485413 116.89389038 C-3.52976226 116.88192055 -0.72479333 116.87820808 2.08032227 116.87939453 C4.91684908 116.87955554 7.75271952 116.8659223 10.58911133 116.83837891 C41.66612763 116.54101432 71.10814946 119.69290865 94.5 142.44140625 C95.428125 143.36824219 96.35625 144.29507813 97.3125 145.25 C98.116875 146.04277344 98.92125 146.83554687 99.75 147.65234375 C114.49723199 163.03964657 122.19778305 183.42931513 125.3125 204.25 C125.49554687 205.46945312 125.67859375 206.68890625 125.8671875 207.9453125 C129.53370653 238.50329698 124.07528487 270.80262674 106.203125 296.25390625 C104.30906891 298.65818287 102.34127823 300.95917125 100.3125 303.25 C99.796875 303.90742187 99.28125 304.56484375 98.75 305.2421875 C79.20690993 329.57333464 44.94236101 341.99277027 14.95282364 345.97284698 C6.12101085 346.8999165 -2.80745279 346.67667522 -11.67578125 346.6484375 C-13.95387362 346.65046553 -16.23196536 346.65338298 -18.51005554 346.65713501 C-23.25766247 346.66152678 -28.00509867 346.65523151 -32.75268555 346.64111328 C-38.77674935 346.62405312 -44.80041103 346.63386311 -50.82446003 346.65183067 C-55.52195653 346.66277947 -60.21936099 346.65917139 -64.91686058 346.6514473 C-67.13516477 346.64947425 -69.35347787 346.65180011 -71.57177162 346.65888596 C-89.32980968 346.70317201 -107.19386961 345.7849945 -124.3125 340.625 C-125.59169312 340.24649902 -125.59169312 340.24649902 -126.89672852 339.86035156 C-155.61179693 330.94832184 -179.50883844 312.76404109 -193.9375 286.1875 C-205.39579214 264.20772942 -208.8308363 239.65762698 -208.84863281 215.15600586 C-208.85327108 213.65503826 -208.85829706 212.15407181 -208.86367798 210.65310669 C-208.87670793 206.60103415 -208.88322853 202.5489781 -208.88768864 198.49688792 C-208.89063497 195.95624689 -208.89474261 193.41561021 -208.89919281 190.87497139 C-208.91284369 182.8995691 -208.9225218 174.92417694 -208.9263947 166.94876379 C-208.93086805 157.79131699 -208.94839247 148.63402 -208.9773953 139.47661871 C-208.9991236 132.36537917 -209.00910491 125.25418144 -209.01043582 118.14290911 C-209.01147601 113.91092264 -209.01721382 109.67907744 -209.03525543 105.44712639 C-209.05193019 101.45871718 -209.05379938 97.4705525 -209.04511642 93.48212051 C-209.04435626 92.03310673 -209.04855052 90.58407872 -209.05857468 89.13509941 C-209.25380508 59.1103162 -199.23584248 32.33958801 -178.4375 10.5625 C-135.05050982 -31.07695863 -47.23973903 -42.06086393 0 0 Z " fill="#EC1E32" transform="translate(631.6875,272.75)"/>
<path d="M0 0 C15.8709375 -0.0928125 15.8709375 -0.0928125 32.0625 -0.1875 C35.371604 -0.21481201 38.68070801 -0.24212402 42.09008789 -0.27026367 C44.75927365 -0.27903843 47.42846348 -0.28668001 50.09765625 -0.29296875 C51.10366127 -0.30472893 51.10366127 -0.30472893 52.12998962 -0.31672668 C66.97661761 -0.48121484 83.49622879 0.66514183 95.19140625 10.921875 C102.26296311 18.53966902 103.64387814 24.981862 103.41015625 35.265625 C102.62123988 42.44852068 99.83393803 47.6690957 94.4375 52.4375 C93.30553082 53.30995659 92.16091752 54.16645022 91 55 C90.195625 55.61875 89.39125 56.2375 88.5625 56.875 C88.046875 57.24625 87.53125 57.6175 87 58 C87.51949219 58.24234375 88.03898437 58.4846875 88.57421875 58.734375 C97.39995483 62.97594872 103.27960547 68.34379982 106.65234375 77.8359375 C108.15930702 87.21636053 108.21540397 97.79384178 103 106 C95.7071315 115.49417212 85.4575927 119.65746737 74 122 C65.11402965 123.12863727 56.20828742 123.13347428 47.265625 123.09765625 C46.05890137 123.09664917 44.85217773 123.09564209 43.60888672 123.09460449 C39.15591464 123.08942271 34.70295623 123.07546198 30.25 123.0625 C20.2675 123.041875 10.285 123.02125 0 123 C0 82.41 0 41.82 0 0 Z M32 26 C32 33.26 32 40.52 32 48 C36.16372198 48.09218573 40.32386084 48.17169966 44.48779297 48.21972656 C45.90197795 48.23975843 47.31608097 48.26699248 48.72998047 48.30175781 C50.77071419 48.35065489 52.8103469 48.37305123 54.8515625 48.390625 C56.07697754 48.41157227 57.30239258 48.43251953 58.56494141 48.45410156 C62.66089252 47.91263255 64.78943643 46.5458789 68 44 C70.35242347 40.79214982 70.4684209 37.90350748 70 34 C68.29938138 30.72473451 67.09134139 28.57072241 63.7824707 26.84033203 C60.4549636 25.83539394 57.64329628 25.77406787 54.16796875 25.8046875 C52.22954102 25.81435547 52.22954102 25.81435547 50.25195312 25.82421875 C48.8971327 25.84092673 47.54231499 25.85785658 46.1875 25.875 C44.81315749 25.88503997 43.43880797 25.89416404 42.06445312 25.90234375 C38.7095601 25.92588686 35.35475766 25.96175704 32 26 Z M32 72 C32 80.25 32 88.5 32 97 C35.98398634 97.06930904 39.96641389 97.12890491 43.95068359 97.16479492 C45.96336248 97.18709408 47.97584584 97.22523653 49.98828125 97.26367188 C61.67020946 97.44747037 61.67020946 97.44747037 71.4375 91.6875 C73.24117696 88.58517563 73.92664397 86.59444562 74 83 C72.41324149 78.74080612 70.78375938 76.44479871 67 74 C59.56594991 71.44995791 51.62783135 71.75873325 43.875 71.875 C37.996875 71.936875 37.996875 71.936875 32 72 Z " fill="#EC1E32" transform="translate(295,702)"/>
<path d="M0 0 C18.5370458 -0.57382511 36.28244345 5.11002766 50.62109375 17 C61.71896727 27.43626953 68.95123711 42.11891359 69.640625 57.375 C70.07858738 76.01404751 66.00676325 91.85441585 52.98291016 105.80566406 C39.77073267 119.16216524 22.55176904 125.18272423 3.90234375 125.41015625 C-15.55576278 125.39879584 -32.09083656 119.08839971 -46.34765625 105.84765625 C-59.0414561 92.45371876 -63.28863348 75.94424771 -62.91015625 58.02734375 C-62.08786418 40.58789937 -54.04909627 26.86094035 -41.4765625 15.19140625 C-29.86054964 5.47232026 -14.91945621 0.91984617 0 0 Z M-18.59765625 37.16015625 C-26.07996323 45.00568201 -29.59765625 53.30789283 -29.59765625 64.16015625 C-28.60758549 74.37026092 -24.43752147 83.40645353 -16.59765625 90.16015625 C-7.65437891 95.5636305 0.7194986 98.97173621 11.15234375 96.51171875 C21.64943945 93.10016265 28.06827563 86.68402045 33.40234375 77.16015625 C37.22273541 68.79167929 36.96864464 59.70661159 34.47265625 51.015625 C31.03672334 41.84895727 24.55767798 35.13438754 16.15234375 30.28515625 C3.2128995 26.40332297 -8.25576375 28.33405134 -18.59765625 37.16015625 Z " fill="#EC1E32" transform="translate(499.59765625,700.83984375)"/>
<path d="M0 0 C11.22 0 22.44 0 34 0 C35.51013672 3.65642578 35.51013672 3.65642578 37.05078125 7.38671875 C44.46458532 25.320025 51.92245637 43.23324718 59.48773193 61.10324097 C65.44760824 75.1824899 71.40440055 89.26319458 77.25869751 103.38674927 C77.87223852 104.86527525 78.4875821 106.34305467 79.10482788 107.82003784 C79.94357033 109.82843997 80.77551605 111.83951532 81.60546875 113.8515625 C82.07106201 114.97385254 82.53665527 116.09614258 83.01635742 117.25244141 C84 120 84 120 84 123 C72.78 123 61.56 123 50 123 C46 115 46 115 41 102 C24.17 102 7.34 102 -10 102 C-13.96 111.9 -13.96 111.9 -18 122 C-19 123 -19 123 -22.14282227 123.11352539 C-23.53402697 123.11336633 -24.92523761 123.10767506 -26.31640625 123.09765625 C-27.04746078 123.0962413 -27.77851532 123.09482635 -28.53172302 123.09336853 C-30.87535632 123.08775408 -33.21889539 123.07519922 -35.5625 123.0625 C-37.14778508 123.05748686 -38.73307166 123.05292363 -40.31835938 123.04882812 C-44.2122761 123.03777997 -48.10612205 123.02050572 -52 123 C-51.40235585 119.56675184 -50.52763828 116.56448931 -49.15600586 113.36401367 C-48.58029343 112.010989 -48.58029343 112.010989 -47.99295044 110.63063049 C-47.57117523 109.65295212 -47.14940002 108.67527374 -46.71484375 107.66796875 C-46.27050995 106.62748886 -45.82617615 105.58700897 -45.36837769 104.51499939 C-43.89604503 101.07049896 -42.41687084 97.62898282 -40.9375 94.1875 C-39.91000946 91.78841609 -38.88291576 89.38916219 -37.85620117 86.98974609 C-35.69370232 81.9374422 -33.52785214 76.88658562 -31.36035156 71.83642578 C-28.26653911 64.62700129 -25.18507483 57.41233932 -22.10596275 50.19662666 C-20.46902773 46.36143292 -18.83040387 42.52696064 -17.19160938 38.69256115 C-15.87622953 35.61484931 -14.56154706 32.53684542 -13.24801636 29.45834351 C-11.77843464 26.01546189 -10.30565188 22.57396695 -8.83203125 19.1328125 C-8.40066864 18.12049057 -7.96930603 17.10816864 -7.52487183 16.06517029 C-6.91471725 14.64289879 -6.91471725 14.64289879 -6.29223633 13.19189453 C-5.94413406 12.3777005 -5.5960318 11.56350647 -5.23738098 10.72463989 C-3.59231572 7.10230328 -1.77918871 3.55837741 0 0 Z M15 36 C12.85942656 41.37344658 10.72329478 46.7486288 8.59130859 52.12548828 C7.86499717 53.9554031 7.13746193 55.78483267 6.40869141 57.61376953 C5.36300741 60.23864976 4.32169841 62.86522836 3.28125 65.4921875 C2.95314331 66.31306854 2.62503662 67.13394958 2.2869873 67.97970581 C0.61247339 71.86985634 0.61247339 71.86985634 0 76 C10.23 76 20.46 76 31 76 C30.09290167 71.46450836 28.76832492 67.40287883 27.12890625 63.109375 C26.84651596 62.36415588 26.56412567 61.61893677 26.2731781 60.85113525 C25.6775886 59.28376093 25.07989585 57.71718439 24.48022461 56.15136719 C23.56140311 53.74712982 22.65446452 51.33862424 21.74804688 48.9296875 C21.16738481 47.40597613 20.58602882 45.88252899 20.00390625 44.359375 C19.73300674 43.63651306 19.46210724 42.91365112 19.18299866 42.16888428 C17.94382859 38.38508516 17.94382859 38.38508516 15 36 Z " fill="#EC1E32" transform="translate(802,702)"/>
<path d="M0 0 C-1.35461232 2.93296306 -2.91162254 5.29861297 -4.96875 7.78515625 C-5.53980469 8.48060547 -6.11085938 9.17605469 -6.69921875 9.89257812 C-7.29347656 10.60865234 -7.88773438 11.32472656 -8.5 12.0625 C-9.67823879 13.48993246 -10.85536748 14.91828213 -12.03125 16.34765625 C-12.81338867 17.29137085 -12.81338867 17.29137085 -13.61132812 18.25415039 C-14.82136801 19.77542241 -15.92175854 21.38263782 -17 23 C-20.38596674 22.35836703 -22.73902541 21.04411232 -25.625 19.1875 C-35.48522827 13.12863004 -45.84350922 9.30382117 -57.48828125 11.4609375 C-67.34815357 14.06774667 -74.75092413 19.21789229 -80 28 C-84.46620557 36.33691706 -84.50313168 47.88607893 -81.9375 56.9375 C-78.19808381 66.00904667 -71.79555544 71.90743083 -63 76 C-52.45836799 80.05598109 -43.2747083 77.67059163 -33 74 C-32.34 73.67 -31.68 73.34 -31 73 C-30.67 63.1 -30.34 53.2 -30 43 C-20.76 43 -11.52 43 -2 43 C-1.77005897 49.87268188 -1.57122001 56.7320001 -1.45068359 63.60546875 C-1.40044897 65.94154084 -1.33224456 68.27729934 -1.24560547 70.61230469 C-1.12400888 73.97409281 -1.06754118 77.33172401 -1.0234375 80.6953125 C-0.97182465 81.73615997 -0.92021179 82.77700745 -0.86703491 83.84939575 C-0.86470489 86.87428771 -0.97164961 89.15130745 -2 92 C-5.01786225 94.76927213 -8.2530466 96.40235685 -12 98 C-12.74833603 98.33067978 -13.49667206 98.66135956 -14.26768494 99.00205994 C-16.19791833 99.82057693 -18.13809488 100.51886009 -20.125 101.1875 C-20.84872803 101.4345166 -21.57245605 101.6815332 -22.31811523 101.93603516 C-42.89882028 108.70762124 -63.92983451 109.47490348 -84.1171875 100.51171875 C-100.34898969 91.99992004 -110.14812252 79.41422699 -116.0546875 62.26171875 C-120.69059483 46.26592278 -118.61883589 28.50356906 -110.78515625 13.9140625 C-100.12426098 -3.4886243 -84.42753059 -12.32992053 -65 -17 C-42.79600508 -21.62583228 -17.03599723 -14.76453093 0 0 Z " fill="#EC1E32" transform="translate(718,719)"/>
<path d="M0 0 C4.764375 -0.061875 9.52875 -0.12375 14.4375 -0.1875 C15.9217749 -0.21481201 17.4060498 -0.24212402 18.93530273 -0.27026367 C27.52172524 -0.32406984 34.81422427 -0.09383424 41.875 5.125 C45.64045557 10.21943988 47.39006164 15.32434261 46.875 21.6875 C46.04400759 26.86313748 44.2395013 31.68212942 40 35 C39.34 35 38.68 35 38 35 C38.30292969 35.47421387 38.60585938 35.94842773 38.91796875 36.43701172 C40.28331246 38.58007621 41.64172139 40.72745138 43 42.875 C43.47695313 43.62136719 43.95390625 44.36773438 44.4453125 45.13671875 C44.89648438 45.85214844 45.34765625 46.56757812 45.8125 47.3046875 C46.23144531 47.96452637 46.65039062 48.62436523 47.08203125 49.30419922 C48 51 48 51 48 53 C42.39 53 36.78 53 31 53 C25 41.25 25 41.25 25 39 C21.7 39 18.4 39 15 39 C15 43.62 15 48.24 15 53 C10.05 53 5.1 53 0 53 C0 35.51 0 18.02 0 0 Z M15 12 C15 16.95 15 21.9 15 27 C16.8975 27.04125 18.795 27.0825 20.75 27.125 C21.81734375 27.14820313 22.8846875 27.17140625 23.984375 27.1953125 C26.95442219 27.00295193 28.53383136 26.60614216 31 25 C32.90701775 22.45730966 33.00587759 21.14400107 32.875 17.9375 C31.83008534 14.42957221 31.14837223 13.76641346 28 12 C24.72283998 11.63791904 24.72283998 11.63791904 21.25 11.8125 C19.1875 11.874375 17.125 11.93625 15 12 Z " fill="#EC1E32" transform="translate(660,880)"/>
<path d="M0 0 C6.25726533 4.8476616 9.12470615 10.4552141 10.1953125 18.26171875 C10.55601898 26.24234953 8.24974585 32.6228973 4.0703125 39.33984375 C-2.41668218 45.64664413 -9.59333343 48.46186045 -18.5546875 48.83984375 C-27.2761804 48.58465377 -34.95948672 45.71989919 -41.1796875 39.52734375 C-47.4115354 31.34223008 -47.9438578 23.5662385 -47.1796875 13.52734375 C-46.28595885 10.45717745 -45.03233568 8.11588703 -43.1796875 5.52734375 C-42.344375 4.19703125 -42.344375 4.19703125 -41.4921875 2.83984375 C-30.32269054 -8.32965321 -12.61809242 -8.52512696 0 0 Z M-27.1796875 9.52734375 C-31.4858693 14.17348727 -32.47759205 17.10328885 -32.3984375 23.27734375 C-31.92000707 28.1983425 -28.76892821 31.38675813 -25.1796875 34.52734375 C-21.56038052 35.73377941 -18.98737745 35.85002934 -15.1796875 35.52734375 C-10.09324949 32.78849252 -7.00964723 30.01722295 -5.1796875 24.52734375 C-4.59200782 18.41547504 -5.78221948 15.43479756 -9.1796875 10.52734375 C-14.47672528 5.04764949 -21.00880939 6.03439388 -27.1796875 9.52734375 Z " fill="#EC1E32" transform="translate(762.1796875,885.47265625)"/>
<path d="M0 0 C4.62 0 9.24 0 14 0 C14.01981934 0.97348389 14.03963867 1.94696777 14.06005859 2.94995117 C14.13635367 6.57504351 14.22503336 10.19974694 14.31738281 13.82446289 C14.35557409 15.39079081 14.39044394 16.95720349 14.421875 18.52368164 C14.46774071 20.780418 14.52569769 23.03657583 14.5859375 25.29296875 C14.59748871 25.98899704 14.60903992 26.68502533 14.62094116 27.40214539 C14.73937177 31.33781706 15.19159206 34.48174277 17 38 C20.35258219 40.60756392 23.89804745 40.43949492 28 40 C30.36497439 38.13291495 31.66030715 36.67938569 33 34 C33.15644172 31.44893971 33.25821389 28.92081337 33.31640625 26.3671875 C33.33718735 25.61535187 33.35796844 24.86351624 33.37937927 24.08889771 C33.44482705 21.68435915 33.50373738 19.27971033 33.5625 16.875 C33.60568977 15.24608229 33.64930421 13.61717578 33.69335938 11.98828125 C33.80130385 7.99229894 33.90041198 3.99623436 34 0 C38.95 0 43.9 0 49 0 C49.04615015 4.55348187 49.08590238 9.10613775 49.10986328 13.65966797 C49.11986197 15.20559453 49.13346538 16.75150246 49.15087891 18.29736328 C49.17539951 20.53162255 49.18654451 22.76562975 49.1953125 25 C49.20563507 25.68054443 49.21595764 26.36108887 49.22659302 27.06225586 C49.2283267 34.63776303 47.7909786 40.97705547 43 47 C38.01044204 51.98955796 31.53466136 54.10351761 24.5625 54.375 C16.84832001 54.05189298 10.35462514 51.91992518 4.47265625 46.890625 C0.09544954 41.27108111 -0.42653692 35.86244711 -0.29296875 29.00390625 C-0.28872391 28.17036118 -0.28447906 27.3368161 -0.28010559 26.47801208 C-0.26343314 23.83916689 -0.22580358 21.20111084 -0.1875 18.5625 C-0.17243833 16.76368297 -0.15875253 14.96485387 -0.14648438 13.16601562 C-0.11356728 8.77704385 -0.06186567 4.38865531 0 0 Z " fill="#EC1E32" transform="translate(781,880)"/>
<path d="M0 0 C1.35180661 0.9748829 2.69080368 1.96860154 4 3 C2.5140084 7.59306496 0.14985318 10.43569245 -3 14 C-5.85521604 12.87521792 -8.57299915 11.70809477 -11.3125 10.3125 C-16.71401761 8.38992594 -20.34659903 9.30780844 -25.875 10.75 C-28.79395309 12.46703123 -29.14913112 13.73833595 -30 17 C-31.27334026 23.07285355 -31.17503658 26.41631497 -28 32 C-24.77178581 35.0264508 -22.07383265 35.96022842 -17.625 36.125 C-13.74345449 36.08926995 -13.74345449 36.08926995 -9 35 C-9 30.71 -9 26.42 -9 22 C-4.71 22 -0.42 22 4 22 C4 28.93 4 35.86 4 43 C-6.44173556 48.96670603 -16.0677858 51.78033176 -27.9375 49.0625 C-35.07020812 46.670094 -40.85020884 41.8563264 -44.515625 35.28125 C-47.80782164 27.02757391 -48.16816206 19.46886586 -45.03125 11.1328125 C-41.61161806 4.0603919 -36.07699275 0.11387681 -29 -3 C-19.77026099 -6.09630133 -8.34412324 -4.75217685 0 0 Z " fill="#EC1E32" transform="translate(645,884)"/>
<path d="M0 0 C7.1775 -0.0928125 7.1775 -0.0928125 14.5 -0.1875 C16.74006836 -0.22846802 16.74006836 -0.22846802 19.02539062 -0.27026367 C34.0513423 -0.36422639 34.0513423 -0.36422639 40.05859375 4.75390625 C40.74115234 5.64916016 40.74115234 5.64916016 41.4375 6.5625 C41.91058594 7.16191406 42.38367188 7.76132812 42.87109375 8.37890625 C46.44071208 13.50482877 45.57091524 20.01523334 45 26 C43.38247431 30.75828184 40.74782243 33.8070104 36.5 36.4375 C29.38911944 39.61200025 22.69616148 39.077739 15 39 C15 43.62 15 48.24 15 53 C10.05 53 5.1 53 0 53 C0 35.51 0 18.02 0 0 Z M15 12 C15 16.95 15 21.9 15 27 C22.35002216 27.52531799 22.35002216 27.52531799 29.1875 25.4375 C31.65485184 22.11933718 31.51451424 20.04261188 31 16 C29.27773504 12.75150023 29.27773504 12.75150023 26 12 C24.10529184 11.9314505 22.2083166 11.91519628 20.3125 11.9375 C18.559375 11.958125 16.80625 11.97875 15 12 Z " fill="#EC1E32" transform="translate(841,880)"/>
</svg>
